<svg xmlns="http://www.w3.org/2000/svg" width="8.5in" height="11in" viewBox="0 0 816 1056">
<rect x="0" y="0" width="816" height="1056" fill="#ffffff"/>
<rect x="128.0" y="150.0" width="560.0" height="62.0" rx="0" fill="none" stroke="#000000" stroke-width="3"/>
<rect x="128.0" y="226.0" width="560.0" height="62.0" rx="0" fill="none" stroke="#000000" stroke-width="3"/>
<line x1="408.0" y1="226.0" x2="408.0" y2="288.0" stroke="#000000" stroke-width="2"/>
<rect x="128.0" y="302.0" width="560.0" height="62.0" rx="0" fill="none" stroke="#000000" stroke-width="3"/>
<line x1="314.7" y1="302.0" x2="314.7" y2="364.0" stroke="#000000" stroke-width="2"/>
<line x1="501.3" y1="302.0" x2="501.3" y2="364.0" stroke="#000000" stroke-width="2"/>
<rect x="128.0" y="378.0" width="560.0" height="62.0" rx="0" fill="none" stroke="#000000" stroke-width="3"/>
<line x1="268.0" y1="378.0" x2="268.0" y2="440.0" stroke="#000000" stroke-width="2"/>
<line x1="408.0" y1="378.0" x2="408.0" y2="440.0" stroke="#000000" stroke-width="2"/>
<line x1="548.0" y1="378.0" x2="548.0" y2="440.0" stroke="#000000" stroke-width="2"/>
<rect x="128.0" y="454.0" width="560.0" height="62.0" rx="0" fill="none" stroke="#000000" stroke-width="3"/>
<line x1="240.0" y1="454.0" x2="240.0" y2="516.0" stroke="#000000" stroke-width="2"/>
<line x1="352.0" y1="454.0" x2="352.0" y2="516.0" stroke="#000000" stroke-width="2"/>
<line x1="464.0" y1="454.0" x2="464.0" y2="516.0" stroke="#000000" stroke-width="2"/>
<line x1="576.0" y1="454.0" x2="576.0" y2="516.0" stroke="#000000" stroke-width="2"/>
<rect x="128.0" y="530.0" width="560.0" height="62.0" rx="0" fill="none" stroke="#000000" stroke-width="3"/>
<line x1="221.3" y1="530.0" x2="221.3" y2="592.0" stroke="#000000" stroke-width="2"/>
<line x1="314.7" y1="530.0" x2="314.7" y2="592.0" stroke="#000000" stroke-width="2"/>
<line x1="408.0" y1="530.0" x2="408.0" y2="592.0" stroke="#000000" stroke-width="2"/>
<line x1="501.3" y1="530.0" x2="501.3" y2="592.0" stroke="#000000" stroke-width="2"/>
<line x1="594.7" y1="530.0" x2="594.7" y2="592.0" stroke="#000000" stroke-width="2"/>
<rect x="128.0" y="606.0" width="560.0" height="62.0" rx="0" fill="none" stroke="#000000" stroke-width="3"/>
<line x1="198.0" y1="606.0" x2="198.0" y2="668.0" stroke="#000000" stroke-width="2"/>
<line x1="268.0" y1="606.0" x2="268.0" y2="668.0" stroke="#000000" stroke-width="2"/>
<line x1="338.0" y1="606.0" x2="338.0" y2="668.0" stroke="#000000" stroke-width="2"/>
<line x1="408.0" y1="606.0" x2="408.0" y2="668.0" stroke="#000000" stroke-width="2"/>
<line x1="478.0" y1="606.0" x2="478.0" y2="668.0" stroke="#000000" stroke-width="2"/>
<line x1="548.0" y1="606.0" x2="548.0" y2="668.0" stroke="#000000" stroke-width="2"/>
<line x1="618.0" y1="606.0" x2="618.0" y2="668.0" stroke="#000000" stroke-width="2"/>
<rect x="128.0" y="682.0" width="560.0" height="62.0" rx="0" fill="none" stroke="#000000" stroke-width="3"/>
<line x1="184.0" y1="682.0" x2="184.0" y2="744.0" stroke="#000000" stroke-width="2"/>
<line x1="240.0" y1="682.0" x2="240.0" y2="744.0" stroke="#000000" stroke-width="2"/>
<line x1="296.0" y1="682.0" x2="296.0" y2="744.0" stroke="#000000" stroke-width="2"/>
<line x1="352.0" y1="682.0" x2="352.0" y2="744.0" stroke="#000000" stroke-width="2"/>
<line x1="408.0" y1="682.0" x2="408.0" y2="744.0" stroke="#000000" stroke-width="2"/>
<line x1="464.0" y1="682.0" x2="464.0" y2="744.0" stroke="#000000" stroke-width="2"/>
<line x1="520.0" y1="682.0" x2="520.0" y2="744.0" stroke="#000000" stroke-width="2"/>
<line x1="576.0" y1="682.0" x2="576.0" y2="744.0" stroke="#000000" stroke-width="2"/>
<line x1="632.0" y1="682.0" x2="632.0" y2="744.0" stroke="#000000" stroke-width="2"/>
<rect x="128.0" y="758.0" width="560.0" height="62.0" rx="0" fill="none" stroke="#000000" stroke-width="3"/>
<line x1="174.7" y1="758.0" x2="174.7" y2="820.0" stroke="#000000" stroke-width="2"/>
<line x1="221.3" y1="758.0" x2="221.3" y2="820.0" stroke="#000000" stroke-width="2"/>
<line x1="268.0" y1="758.0" x2="268.0" y2="820.0" stroke="#000000" stroke-width="2"/>
<line x1="314.7" y1="758.0" x2="314.7" y2="820.0" stroke="#000000" stroke-width="2"/>
<line x1="361.3" y1="758.0" x2="361.3" y2="820.0" stroke="#000000" stroke-width="2"/>
<line x1="408.0" y1="758.0" x2="408.0" y2="820.0" stroke="#000000" stroke-width="2"/>
<line x1="454.7" y1="758.0" x2="454.7" y2="820.0" stroke="#000000" stroke-width="2"/>
<line x1="501.3" y1="758.0" x2="501.3" y2="820.0" stroke="#000000" stroke-width="2"/>
<line x1="548.0" y1="758.0" x2="548.0" y2="820.0" stroke="#000000" stroke-width="2"/>
<line x1="594.7" y1="758.0" x2="594.7" y2="820.0" stroke="#000000" stroke-width="2"/>
<line x1="641.3" y1="758.0" x2="641.3" y2="820.0" stroke="#000000" stroke-width="2"/>
</svg>
